<?xml version="1.0" encoding="UTF-8" standalone="no"?>
<svg height="512" id="svg1" version="1.1" viewBox="0 0 512 512" width="512" xmlns="http://www.w3.org/2000/svg" xml:space="preserve"><defs
   id="defs1" />
    <path
        style="fill:#ffffff;stroke-width:0.24"
        d="m 198.4,320.29153 -22.08,22.08 q -4.56,4.56 -10.44,2.04 -5.88,-2.52 -5.88,-9 v -149.52 q 0,-7.92 5.64,-13.56 5.64,-5.64 13.56,-5.64 h 153.6 q 7.92,0 13.56,5.64 5.64,5.64 5.64,13.56 v 115.2 q 0,7.92 -5.64,13.56 -5.64,5.64 -13.56,5.64 z m 9.6,-38.4 h 57.6 q 4.08,0 6.84,-2.76 2.76,-2.76 2.76,-6.84 0,-4.08 -2.76,-6.84 -2.76,-2.76 -6.84,-2.76 H 208 q -4.08,0 -6.84,2.76 -2.76,2.76 -2.76,6.84 0,4.08 2.76,6.84 2.76,2.76 6.84,2.76 z m 0,-28.8 h 96 q 4.08,0 6.84,-2.76 2.76,-2.76 2.76,-6.84 0,-4.08 -2.76,-6.84 -2.76,-2.76 -6.84,-2.76 h -96 q -4.08,0 -6.84,2.76 -2.76,2.76 -2.76,6.84 0,4.08 2.76,6.84 2.76,2.76 6.84,2.76 z m 0,-28.8 h 96 q 4.08,0 6.84,-2.76 2.76,-2.76 2.76,-6.84 0,-4.08 -2.76,-6.84 -2.76,-2.76 -6.84,-2.76 h -96 q -4.08,0 -6.84,2.76 -2.76,2.76 -2.76,6.84 0,4.08 2.76,6.84 2.76,2.76 6.84,2.76 z" id="path1" /></svg>
